PathFileType	4	(X/Y/Z)	Patient4_TMGait_0pt4_01_right_06.trc.trc
DataRate	CameraRate	NumFrames	NumMarkers	Units	OrigDataRate	OrigDataStartFrame	OrigNumFrames
73.298429319372	73.298429319372	4	33	mm	73.298429319372	106	       141
Frame#	Time	Sacral			L.Shoulder			Chest			R.Shoulder			Neck			R.ASIS			L.ASIS			R.Thigh.Superior			R.Thigh.Lateral			R.Thigh.Inferior			R.Patella			L.Thigh.Superior			L.Thigh.Lateral			L.Thigh.Inferior			L.Patella			L.Shank.Superior			L.Shank.Lateral			L.Shank.Inferior			R.Shank.Superior			R.Shank.Lateral			R.Shank.Inferior			R.Heel			R.Midfoot.Superior			R.Midfoot.Lateral			R.Toe			L.Heel			L.Midfoot.Lateral			L.Midfoot.Superior			L.Toe			L.Elbow			L.Wrist			R.Elbow			R.Wrist			
		X1	Y1	Z1	X2	Y2	Z2	X3	Y3	Z3	X4	Y4	Z4	X5	Y5	Z5	X6	Y6	Z6	X7	Y7	Z7	X8	Y8	Z8	X9	Y9	Z9	X10	Y10	Z10	X11	Y11	Z11	X12	Y12	Z12	X13	Y13	Z13	X14	Y14	Z14	X15	Y15	Z15	X16	Y16	Z16	X17	Y17	Z17	X18	Y18	Z18	X19	Y19	Z19	X20	Y20	Z20	X21	Y21	Z21	X22	Y22	Z22	X23	Y23	Z23	X24	Y24	Z24	X25	Y25	Z25	X26	Y26	Z26	X27	Y27	Z27	X28	Y28	Z28	X29	Y29	Z29	X30	Y30	Z30	X31	Y31	Z31	X32	Y32	Z32	X33	Y33	Z33	

106	8.722500000000	772.204880336578	1005.412968987168	442.877236726109	961.119058165916	1433.634863087242	257.974049431426	1042.582715641177	1376.650730998064	434.035037421164	935.448827615600	1453.806687186831	593.043510124829	923.446513451601	1501.605312279026	409.803146428380	993.782141749809	956.528273186894	579.305352936257	1001.875140331351	969.395800602715	303.960995610337	1079.953156205210	782.110169293669	557.574668481887	1035.771285980168	661.189861406921	631.915186665865	1129.271030006498	620.458545974292	559.474067389714	1149.451892719464	513.454147080116	586.396577374916	1031.082275593430	746.540826580361	336.273134899601	931.292330222250	636.631774841215	275.881197033485	1004.670231893487	553.427510414636	342.085824027740	997.318110528220	486.564078981057	353.911076674153	970.216743033595	416.304945841137	346.535060917178	877.294699353646	302.793199097506	297.518705825175	925.812155831858	192.990821367749	373.933864928415	1084.105374737576	432.237861754032	591.697525331765	969.816173955559	374.862400714344	650.233987097678	974.971793037998	263.902196899265	603.117613045222	788.084984295235	167.038102830611	572.224064484274	963.940189342491	143.729850431347	620.721371974266	855.097533129249	120.656895626044	647.973324744451	1046.733435794658	44.157246466327	648.422475338848	795.001549239643	38.558258879489	423.113410232259	867.212725426739	35.112826991824	340.600389465172	951.616031643893	95.499117300165	365.305286614749	1079.614413354212	42.110219882504	335.102488349620	994.988739224310	1090.218760152269	123.711905668410	1195.469209778556	921.827956188332	135.390146719131	813.556724557195	1136.969831377413	721.114300864008	819.453914026236	877.586068993314	751.253054913759	
107	8.736142857143	770.606084333296	1005.786107822209	441.900497391557	962.048892480418	1433.326750822838	257.222973229988	1041.886361835476	1376.509244226832	434.068747120934	933.631459588222	1454.271679864357	592.010360626560	923.031785373712	1501.613988807481	408.736458126471	991.381773738263	957.000363411112	579.768699770488	1001.288650881577	969.229175423936	304.311568043703	1077.845126713714	783.024233655542	557.523402122026	1034.714100705437	662.109697229694	632.290970598955	1127.447210113378	621.527547355122	558.999923829848	1149.357986680266	516.043536126610	586.227699855083	1027.718458370772	745.783928733294	337.403286422874	927.368954260717	636.764602868570	275.771731560499	999.337703985104	552.960255302110	342.460245199443	991.357198245564	486.396742067451	354.017473113859	964.395021880911	416.343807832088	346.526851774108	871.578311358778	302.779178809592	297.398721424855	920.192128395655	193.064970602028	373.939083391062	1087.125412271611	433.432294945622	592.183309481882	976.151008883089	370.934922115579	651.592347887337	986.349668150048	260.160045062482	604.623220612077	804.222593993662	154.034945921750	574.844182104527	981.224518999842	139.601758607132	622.662004292010	873.772751813909	111.475056231692	650.662023368585	1068.905304309559	44.745839928132	650.654441232520	789.481580144737	38.509741872665	423.103515481326	861.692590846825	35.075577521833	340.588461433188	946.090701819783	95.508523666199	365.286848829292	1074.093030780814	42.192814026700	335.104915965630	1000.130792878392	1090.780266591093	122.683012433749	1205.370398383939	928.372271661962	134.735140504596	807.362274660407	1139.230405639464	719.384678274053	812.021597827506	879.733542857660	749.411933432102	
108	8.749785714286	769.017164427736	1006.044526799649	441.084853800272	962.927462296200	1432.862169044787	256.633898535516	1041.261794313366	1376.201520624362	434.195383218160	932.006660814906	1454.564009922196	591.149096945900	922.691680148402	1501.482234594321	407.833342478460	989.017964978447	957.239669047883	580.366069425176	1000.560880936255	968.851094780392	304.810903022557	1075.418089596781	783.371764822669	557.608606632272	1033.050335664765	662.595503040271	632.763325953798	1124.885716733814	621.962877549915	558.578810970422	1148.422005260157	518.214331583496	586.016486225388	1024.414390894091	744.982843771825	338.601343838880	923.569053174603	636.833551745112	275.704543929309	994.136791121700	552.462615001903	342.884430114700	985.551830425632	486.185827103844	354.161232261048	958.700726922369	416.325727658254	346.569747438868	865.987307890897	302.730814113469	297.307863991062	914.609032525655	193.086311916835	373.971352849581	1089.595773970256	434.335579392387	592.720176745837	982.441709874113	366.609507744438	653.174275506661	997.919345152926	256.292183153549	606.305555303327	821.314425543679	140.761199848393	577.802260521360	999.049313649973	135.543758020474	624.764428886932	893.323358932601	102.264034374504	653.635101103204	1091.564522690843	45.752177667513	652.947143902763	783.976015081967	38.448138774868	423.102260729749	856.175130003202	35.035631549839	340.580926605020	940.566411640309	95.511054626581	365.285852248912	1068.576425038829	42.263726037266	335.113823960333	1004.973301843599	1091.167907062571	121.931868600450	1214.722433248758	934.783217282053	134.294107798069	801.980888701205	1141.027816312125	717.723224428550	805.800076332121	881.400805172763	747.507692146039	
109	8.763428571429	767.463397358482	1006.191858546092	440.428268152381	963.733131020057	1432.260159667279	256.216512268434	1040.706924518093	1375.742144740338	434.418039861376	930.583937551339	1454.688485816798	590.476417362543	922.424353725231	1501.223386686249	407.107902021136	986.716804333918	957.252316936446	581.079312013606	999.691077619529	968.285040191201	305.443960175345	1072.682585735477	783.154756089244	557.850729517938	1030.737787921195	662.645869492176	633.336753581391	1121.612976169744	621.777030910888	558.272969542533	1146.633828952702	519.953084868704	585.778970182545	1021.223578787960	744.148358610309	339.797015687754	919.902270197406	636.841667992302	275.681544917735	989.111522023328	551.938216569364	343.328964547674	979.948069892455	485.928419348066	354.328879774030	953.169695371385	416.251997191429	346.651504689263	860.531688500917	302.661925609593	297.241480240636	909.075539560868	193.058662917522	374.017068124518	1091.483054759226	434.983121717792	593.290317385413	988.624001155884	362.037952866119	654.921072356660	1009.526403287885	252.485997017532	608.082853658178	839.182313227885	127.584700488312	580.949367122581	1017.177999134558	131.793089148471	626.923678715300	913.508215260186	93.345642475026	656.748135665094	1114.367999051416	47.355495890230	655.193617202266	778.483265216608	38.380977211225	423.105634982460	850.661999906523	34.995288149007	340.575809429711	935.045934566032	95.504256435355	365.297750518249	1063.064812141560	42.315594086947	335.128471770923	1009.512807098839	1091.385076931448	121.465382373433	1223.480017109603	940.990164725732	134.073547564771	797.445071923668	1142.334227487650	716.162900521678	800.779630969326	882.561830353017	745.584985290069	
